<svg xmlns="http://www.w3.org/2000/svg" viewBox="0 0 720 200" role="img" aria-label="Valentia">
  <!-- Mark on the left -->
  <g transform="translate(0,0)">
    <g fill="none" stroke-linecap="square" stroke-linejoin="miter" stroke-width="14">
      <path d="M22 100 L100 22" stroke="#5fb3b3"/>
      <path d="M100 22 L178 100" stroke="#5fb3b3"/>
      <path d="M178 100 L100 178" stroke="#1e4d7b"/>
      <path d="M100 178 L22 100" stroke="#1e4d7b"/>
    </g>
    <rect x="44" y="46" width="10" height="22" fill="#5fb3b3" transform="rotate(-45 49 57)"/>
    <g fill="none" stroke-linecap="square" stroke-linejoin="miter" stroke-width="10">
      <path d="M58 100 L100 58" stroke="#5fb3b3"/>
      <path d="M100 58 L142 100" stroke="#5fb3b3"/>
      <path d="M142 100 L100 142" stroke="#1e4d7b"/>
      <path d="M100 142 L58 100" stroke="#1e4d7b"/>
    </g>
    <path d="M70 105 Q100 75 130 105 L122 105 Q100 88 78 105 Z" fill="#5fb3b3"/>
    <path d="M82 122 Q100 96 118 122 Z" fill="#f08020"/>
  </g>

  <!-- Wordmark VALENTIA in navy -->
  <text x="220" y="135" font-family="Inter, -apple-system, Helvetica, Arial, sans-serif"
        font-size="110" font-weight="500" letter-spacing="6" fill="#1e4d7b">VALENTIA</text>
</svg>
